<svg xmlns="http://www.w3.org/2000/svg" fill="none" viewBox="0 0 1083 575"><defs/><path fill="#F5F6FC" fill-rule="evenodd" d="M580-124L130 326l249 249h713v-699H580z" clip-rule="evenodd"/><path fill="#E81F76" d="M269.774 132.111l20.546 53.384L230 175.397l39.774-43.286z"/><path fill="#005742" d="M326.158 161.837l59.505 52.086-78.268 28.638 18.763-80.724z" opacity=".5"/><path fill="#194F90" d="M290.066 105.568l-8.776 17.386-8.584-15.836 17.36-1.55z"/><mask id="a" width="57" height="81" x="167" y="268" mask-type="alpha" maskUnits="userSpaceOnUse"><path fill="#fff" fill-rule="evenodd" d="M223.86 268.691h-55.925v80.257h55.925v-80.257z" clip-rule="evenodd"/></mask><g fill-rule="evenodd" clip-rule="evenodd" mask="url(#a)"><path fill="#56B146" d="M187.075 268.691h-19.14l30.093 30.339-10.953-30.339z"/><path fill="#C3233D" d="M208.285 348.948s15.468-28.219 15.715-28.193l-15.372.081-.343 28.112z"/></g><path fill="#D5246A" fill-rule="evenodd" d="M208.628 320.836l-31.617-.004 31.274 28.116.343-28.112z" clip-rule="evenodd"/><path fill="#E77A2B" fill-rule="evenodd" d="M178.213 373.667l-1.202-52.835 31.274 28.116-30.072 24.719z" clip-rule="evenodd"/><path fill="#FAC922" fill-rule="evenodd" d="M140.427 347.374l37.798 26.293-1.214-52.835-36.584 26.542z" clip-rule="evenodd"/><path fill="#56B146" fill-rule="evenodd" d="M116.947 312.57l60.064 8.262-36.584 26.542-23.48-34.804z" clip-rule="evenodd"/><path fill="#C3233D" fill-rule="evenodd" d="M130.832 268.691l24.271 29.722-38.157 14.157 13.886-43.879z" clip-rule="evenodd"/><path fill="#487FB5" fill-rule="evenodd" d="M73.864 268.691h56.968l-13.886 43.879-43.082-43.879z" clip-rule="evenodd"/><path fill="#D5246A" fill-rule="evenodd" d="M177.011 320.832l-60.064-8.262 38.157-14.157 21.907 22.419z" clip-rule="evenodd"/><path fill="#23477B" fill-rule="evenodd" d="M63.065 312.57h53.882l-43.083-43.879-10.799 43.879z" clip-rule="evenodd"/><path fill="#419845" fill-rule="evenodd" d="M90.085 361.433l50.342-14.059-23.48-34.804-26.862 48.863z" clip-rule="evenodd"/><path fill="#014C3D" fill-rule="evenodd" d="M63.065 312.57l27.02 48.863 26.862-48.863H63.065z" clip-rule="evenodd"/><path fill="#419845" fill-rule="evenodd" d="M44.156 347.374l45.93 14.059-27.02-48.863-18.91 34.804z" clip-rule="evenodd"/><path fill="#56B146" fill-rule="evenodd" d="M52.52 375.891l37.565-14.458-45.93-14.059 8.366 28.517z" clip-rule="evenodd"/><path fill="#487FB5" fill-rule="evenodd" d="M73.864 268.691l-41.48 34.082 30.681 9.797 10.799-43.879z" clip-rule="evenodd"/><path fill="#008B47" fill-rule="evenodd" d="M63.065 312.57l-30.68-9.797 11.77 44.601 18.91-34.804z" clip-rule="evenodd"/><path fill="#014C3D" fill-rule="evenodd" d="M44.156 347.374l-42.443 8.017 50.808 20.5-8.365-28.517z" clip-rule="evenodd"/><path fill="#419845" fill-rule="evenodd" d="M1.713 355.391l-.514 40.236 51.322-19.736-50.808-20.5z" clip-rule="evenodd"/><path fill="#23477B" fill-rule="evenodd" d="M52.52 375.891L1.2 395.627l38.774 6.45 12.547-26.186z" clip-rule="evenodd"/><path fill="#56B146" fill-rule="evenodd" d="M1.2 395.627l19.917 43.816 18.858-37.366-38.776-6.45z" clip-rule="evenodd"/><path fill="#487FB5" fill-rule="evenodd" d="M39.974 402.077l-18.857 37.366 28.737-15.951-9.88-21.415z" clip-rule="evenodd"/><path fill="#23477B" fill-rule="evenodd" d="M21.117 439.443L49.54 458l.313-34.508-28.737 15.951z" clip-rule="evenodd"/><path fill="#487FB5" fill-rule="evenodd" d="M49.854 423.492L49.54 458l14.273-22.414-13.96-12.094z" clip-rule="evenodd"/><path fill="#23477B" fill-rule="evenodd" d="M49.541 458h37.952l-23.679-22.415L49.541 458z" clip-rule="evenodd"/><path fill="#C3233D" fill-rule="evenodd" d="M63.814 435.585L87.493 458l-4.181-22.415H63.813z" clip-rule="evenodd"/><path fill="#D5246A" fill-rule="evenodd" d="M83.312 435.585L87.492 458l18.25-22.415h-22.43z" clip-rule="evenodd"/><path fill="#C3233D" fill-rule="evenodd" d="M83.312 435.585h22.43l-13.307-15.51-9.123 15.51z" clip-rule="evenodd"/><path fill="#E77A2B" fill-rule="evenodd" d="M105.742 435.585v-29.334l-13.307 13.824 13.307 15.51z" clip-rule="evenodd"/><path fill="#56B146" fill-rule="evenodd" d="M32.384 302.773L1.713 355.391l42.443-8.017-11.772-44.601z" clip-rule="evenodd"/><path fill="#419845" fill-rule="evenodd" d="M83.311 407.012l3.043-15.023-22.43 10.102 19.387 4.921z" clip-rule="evenodd"/><path fill="#56B146" fill-rule="evenodd" d="M105.742 406.251l-22.43.761 3.042-15.023 19.388 14.262z" clip-rule="evenodd"/><path fill="#FAC922" fill-rule="evenodd" d="M92.435 420.075l-9.123-13.063 22.43-.761-13.307 13.824z" clip-rule="evenodd"/><path fill="#419845" fill-rule="evenodd" d="M171.729 288.224l-16.625 10.189.809-20.135 15.816 9.946z" clip-rule="evenodd"/><path fill="#56B146" fill-rule="evenodd" d="M171.729 288.224l-15.816-9.946 12.022-9.587 3.794 19.533z" clip-rule="evenodd"/><path fill="#008B47" fill-rule="evenodd" d="M198.028 299.03l-30.093-30.339 3.794 19.533 26.299 10.806z" clip-rule="evenodd"/><path fill="#014C3D" fill-rule="evenodd" d="M155.104 298.412l16.625-10.188 7.737 10.638-24.362-.45z" clip-rule="evenodd"/><path fill="#419845" fill-rule="evenodd" d="M198.028 299.03l-26.299-10.806 7.737 10.638 18.562.168z" clip-rule="evenodd"/><path fill="#E77A2B" fill-rule="evenodd" d="M208.628 320.836l-29.162-21.974-2.455 21.97 31.617.004z" clip-rule="evenodd"/><path fill="#C3233D" fill-rule="evenodd" d="M179.466 298.862l-2.455 21.97-21.907-22.419 24.362.449z" clip-rule="evenodd"/><path fill="#FAC922" fill-rule="evenodd" d="M208.628 320.836l-10.6-21.806-18.562-.168 29.162 21.974z" clip-rule="evenodd"/><path fill="#419845" fill-rule="evenodd" d="M137.529 373.615l9.121 15.511h-26.273l17.152-15.511z" clip-rule="evenodd"/><path fill="#56B146" fill-rule="evenodd" d="M157.295 373.667l-10.645 15.459-9.121-15.511 19.766.052z" clip-rule="evenodd"/><path fill="#014C3D" fill-rule="evenodd" d="M140.427 347.374l-2.898 26.241-47.444-12.182 50.342-14.059z" clip-rule="evenodd"/><path fill="#008B47" fill-rule="evenodd" d="M120.377 389.126l-30.292-27.693 47.444 12.182-17.152 15.511z" clip-rule="evenodd"/><path fill="#141414" d="M290.948 338h4.92v-11.8h13.36V338h4.92v-28h-4.92v11.64h-13.36V310h-4.92v28zm39.51.48c3.88 0 6.64-1.56 8.64-3.96l-2.84-2.52c-1.68 1.64-3.36 2.52-5.72 2.52-3.12 0-5.56-1.92-6.08-5.36h15.52c.04-.48.08-.92.08-1.36 0-6.08-3.4-11.36-10.12-11.36-6.04 0-10.32 4.96-10.32 11v.08c0 6.52 4.72 10.96 10.84 10.96zm-6.04-12.52c.44-3.28 2.52-5.56 5.48-5.56 3.2 0 5.04 2.44 5.36 5.56h-10.84zM345.199 338h4.84v-29.2h-4.84V338zm11.445 0h4.84v-29.2h-4.84V338zm21.206.48c6.52 0 11.32-5 11.32-11v-.08c0-6.04-4.76-10.96-11.24-10.96s-11.28 5-11.28 11.04v.08c0 6 4.76 10.92 11.2 10.92zm.08-4.24c-3.76 0-6.44-3.08-6.44-6.76v-.08c0-3.68 2.48-6.72 6.36-6.72 3.8 0 6.48 3.08 6.48 6.8v.08c0 3.64-2.48 6.68-6.4 6.68zm33.241 3.92h4.32l4.76-14.44 4.72 14.44h4.36l6.92-21.28h-4.88l-4.32 14.48-4.68-14.56h-4.16l-4.68 14.56-4.24-14.48h-4.96l6.84 21.28zm38.397.32c6.52 0 11.32-5 11.32-11v-.08c0-6.04-4.76-10.96-11.24-10.96s-11.28 5-11.28 11.04v.08c0 6 4.76 10.92 11.2 10.92zm.08-4.24c-3.76 0-6.44-3.08-6.44-6.76v-.08c0-3.68 2.48-6.72 6.36-6.72 3.8 0 6.48 3.08 6.48 6.8v.08c0 3.64-2.48 6.68-6.4 6.68zm16.169 3.76h4.84v-8.04c0-5.6 2.96-8.36 7.2-8.36h.28v-5.12c-3.72-.16-6.16 2-7.48 5.16v-4.76h-4.84V338zm16.804 0h4.84v-29.2h-4.84V338zm19.885.44c3.44 0 5.64-1.76 7.2-3.96V338h4.84v-29.2h-4.84v11.36c-1.52-2-3.72-3.72-7.2-3.72-5.04 0-9.8 3.96-9.8 10.96v.08c0 7 4.84 10.96 9.8 10.96zm1.16-4.2c-3.28 0-6.08-2.68-6.08-6.76v-.08c0-4.2 2.76-6.76 6.08-6.76 3.24 0 6.12 2.68 6.12 6.76v.08c0 4.04-2.88 6.76-6.12 6.76zm18.636-5.12h2.68l1.48-17.72V310h-5.68v1.4l1.52 17.72zm-1.32 8.88h5.32v-5.52h-5.32V338z"/><path fill="#4A586D" d="M621.877 426h3.69v-8.85h10.02V426h3.69v-21h-3.69v8.73h-10.02V405h-3.69v21zm29.633.36c2.91 0 4.98-1.17 6.48-2.97l-2.13-1.89c-1.26 1.23-2.52 1.89-4.29 1.89-2.34 0-4.17-1.44-4.56-4.02h11.64c.03-.36.06-.69.06-1.02 0-4.56-2.55-8.52-7.59-8.52-4.53 0-7.74 3.72-7.74 8.25v.06c0 4.89 3.54 8.22 8.13 8.22zm-4.53-9.39c.33-2.46 1.89-4.17 4.11-4.17 2.4 0 3.78 1.83 4.02 4.17h-8.13zm15.585 9.03h3.63v-21.9h-3.63V426zm8.584 0h3.63v-21.9h-3.63V426zm15.904.36c4.89 0 8.49-3.75 8.49-8.25v-.06c0-4.53-3.57-8.22-8.43-8.22-4.86 0-8.46 3.75-8.46 8.28v.06c0 4.5 3.57 8.19 8.4 8.19zm.06-3.18c-2.82 0-4.83-2.31-4.83-5.07v-.06c0-2.76 1.86-5.04 4.77-5.04 2.85 0 4.86 2.31 4.86 5.1v.06c0 2.73-1.86 5.01-4.8 5.01zm28.471 2.97h3.27l8.7-21.15h-3.99l-6.3 16.14-6.33-16.14h-4.08l8.73 21.15zm14.624-18.42h3.9v-3.45h-3.9v3.45zm.15 18.27h3.63v-15.84h-3.63V426zm8.584 0h3.63v-21.9h-3.63V426zm12.934.33c2.43 0 4.08-1.02 5.16-2.31V426h3.54v-9.39c0-2.07-.54-3.75-1.71-4.89-1.11-1.14-2.88-1.77-5.25-1.77-2.52 0-4.23.51-5.97 1.29l.96 2.85c1.44-.6 2.76-.99 4.53-.99 2.55 0 3.93 1.2 3.93 3.45v.39c-1.23-.39-2.49-.66-4.26-.66-3.87 0-6.54 1.68-6.54 5.1v.06c0 3.18 2.64 4.89 5.61 4.89zm1.02-2.64c-1.74 0-3.09-.87-3.09-2.4v-.06c0-1.65 1.38-2.64 3.72-2.64 1.44 0 2.67.27 3.6.63v1.08c0 2.01-1.83 3.39-4.23 3.39zm-.48-15.54h2.73l3.69-3.45-3.3-1.47-3.12 4.92zm19.558 22.71c2.85 0 5.07-.69 6.51-2.13 1.32-1.32 2.01-3.3 2.01-5.97v-12.6h-3.63v2.37c-1.23-1.47-2.88-2.7-5.55-2.7-3.69 0-7.2 2.76-7.2 7.44v.06c0 4.65 3.48 7.41 7.2 7.41 2.61 0 4.26-1.2 5.58-2.91v1.23c0 3.18-1.77 4.86-5.01 4.86-2.16 0-3.93-.63-5.64-1.68l-1.35 2.73c2.04 1.23 4.47 1.89 7.08 1.89zm.3-9.21c-2.49 0-4.5-1.77-4.5-4.35v-.06c0-2.61 1.98-4.35 4.5-4.35s4.65 1.77 4.65 4.35v.06c0 2.58-2.13 4.35-4.65 4.35zm14.037-2.31h2.01l1.11-13.29V405h-4.26v1.05l1.14 13.29zm-.99 6.66h3.99v-4.14h-3.99V426zM432.948 254.1h2.12l3.44-10.06 3.44 10.06h2.14l4.86-14.1h-2.58l-3.34 10.38-3.44-10.42h-2.08l-3.44 10.42-3.34-10.38h-2.66l4.88 14.1zm17.991-12.28h2.6v-2.3h-2.6v2.3zm.1 12.18h2.42v-10.56h-2.42V254zm9.123.18c.92 0 1.58-.2 2.18-.54v-1.98c-.48.24-.96.36-1.5.36-.82 0-1.3-.38-1.3-1.32v-5.18h2.84v-2.08h-2.84v-2.9h-2.42v2.9h-1.34v2.08h1.34v5.56c0 2.32 1.26 3.1 3.04 3.1zm7.722.04c1.62 0 2.72-.68 3.44-1.54V254h2.36v-6.26c0-1.38-.36-2.5-1.14-3.26-.74-.76-1.92-1.18-3.5-1.18-1.68 0-2.82.34-3.98.86l.64 1.9c.96-.4 1.84-.66 3.02-.66 1.7 0 2.62.8 2.62 2.3v.26c-.82-.26-1.66-.44-2.84-.44-2.58 0-4.36 1.12-4.36 3.4v.04c0 2.12 1.76 3.26 3.74 3.26zm.68-1.76c-1.16 0-2.06-.58-2.06-1.6v-.04c0-1.1.92-1.76 2.48-1.76.96 0 1.78.18 2.4.42v.72c0 1.34-1.22 2.26-2.82 2.26zm8.059-10.64h2.6v-2.3h-2.6v2.3zm-.54 15.44c1.96 0 3.06-.98 3.06-3.12v-10.7h-2.42V254c0 .92-.46 1.28-1.14 1.28-.22 0-.44-.02-.681-.06v1.94c.381.06.701.1 1.181.1zm17.398-3.06c2.94 0 5-1.56 5-4.18v-.04c0-2.32-1.52-3.38-4.48-4.1-2.7-.64-3.34-1.12-3.34-2.2v-.04c0-.92.84-1.66 2.28-1.66 1.28 0 2.54.5 3.8 1.44l1.32-1.86c-1.42-1.14-3.04-1.76-5.08-1.76-2.78 0-4.78 1.66-4.78 4.06v.04c0 2.58 1.68 3.46 4.66 4.18 2.6.6 3.16 1.14 3.16 2.14v.04c0 1.04-.96 1.76-2.48 1.76-1.72 0-3.08-.66-4.42-1.82l-1.48 1.76c1.68 1.5 3.7 2.24 5.84 2.24zm-1.2-15.56h1.88l2.56-1.94-2.2-.96-2.24 2.9zm11.158 15.44h2.16l2.38-7.22 2.36 7.22h2.18l3.46-10.64h-2.44l-2.16 7.24-2.34-7.28h-2.08l-2.34 7.28-2.12-7.24h-2.48l3.42 10.64zm14.726-12.26h2.6v-2.3h-2.6v2.3zm.1 12.18h2.42v-10.56h-2.42V254zm10.423.24c1.94 0 3.32-.78 4.32-1.98l-1.42-1.26c-.84.82-1.68 1.26-2.86 1.26-1.56 0-2.78-.96-3.04-2.68h7.76c.02-.24.04-.46.04-.68 0-3.04-1.7-5.68-5.06-5.68-3.02 0-5.16 2.48-5.16 5.5v.04c0 3.26 2.36 5.48 5.42 5.48zm-3.02-6.26c.22-1.64 1.26-2.78 2.74-2.78 1.6 0 2.52 1.22 2.68 2.78h-5.42zm15.13 6.26c2.06 0 3.28-.82 4.32-1.98l-1.46-1.44c-.76.78-1.6 1.3-2.74 1.3-1.86 0-3.16-1.5-3.16-3.38v-.04c0-1.84 1.3-3.36 3.06-3.36 1.2 0 1.98.54 2.72 1.32l1.52-1.62c-1-1.08-2.24-1.82-4.22-1.82-3.18 0-5.5 2.52-5.5 5.52v.04c0 3 2.32 5.46 5.46 5.46zm6.586-12.42h2.6v-2.3h-2.6v2.3zm.1 12.18h2.42v-10.56h-2.42V254zm10.423.24c1.94 0 3.32-.78 4.32-1.98l-1.42-1.26c-.84.82-1.68 1.26-2.86 1.26-1.56 0-2.78-.96-3.04-2.68h7.76c.02-.24.04-.46.04-.68 0-3.04-1.7-5.68-5.06-5.68-3.02 0-5.16 2.48-5.16 5.5v.04c0 3.26 2.36 5.48 5.42 5.48zm-3.02-6.26c.22-1.64 1.26-2.78 2.74-2.78 1.6 0 2.52 1.22 2.68 2.78h-5.42zm11.09 1.58h1.34l.74-8.86v-.7h-2.84v.7l.76 8.86zm-.66 4.44h2.66v-2.76h-2.66V254zM448.39 158.83c.18-.93.3-1.95.3-3.06 0-1.23-.15-2.37-.39-3.42h6.21v6.48h-6.12zm-6.39 4.14c-2.58 0-4.38-2.82-4.38-7.2 0-4.35 1.8-7.17 4.38-7.17 2.55 0 4.38 2.82 4.38 7.17 0 4.38-1.83 7.2-4.38 7.2zm12.51-18.66v6.03h-6.9c-1.14-2.52-3.12-3.96-5.61-3.96-3.93 0-6.72 3.66-6.72 9.39s2.79 9.39 6.72 9.39c2.58 0 4.68-1.59 5.79-4.32h6.72v10.44h2.46v-26.97h-2.46zm13.198 8.73h13.74v4.95h-13.74v-4.95zm8.1 12.72v-5.79h8.04v-13.74h-2.4v4.8h-13.74v-4.8h-2.43v13.74h8.04v5.79h-10.92v2.01h24.39v-2.01h-10.98zm22.167-18.9h-2.37v5.13c0 4.62-2.22 9.45-5.91 11.61l1.53 1.83c2.67-1.65 4.62-4.68 5.58-8.25.96 3.27 2.76 6.12 5.31 7.68l1.41-1.92c-3.54-2.16-5.55-6.72-5.55-11.04v-5.04zm7.08 7.11h-4.44v2.04h4.44v13.89h2.31v-24.99h-2.31v9.06zm5.46-9.66v26.91h2.34v-26.91h-2.34zm15.508 15.09c1.11.27 2.4.42 3.72.42 1.35 0 2.64-.15 3.78-.42v6.33h-7.5v-6.33zm3.72-11.46c4.32 0 7.44 1.98 7.44 4.98 0 3-3.12 4.98-7.44 4.98s-7.41-1.98-7.41-4.98c0-3 3.09-4.98 7.41-4.98zm6.24 17.79v-7.29c2.22-1.17 3.54-3.09 3.54-5.52 0-4.2-4.05-6.9-9.78-6.9-5.7 0-9.78 2.7-9.78 6.9 0 2.43 1.35 4.38 3.6 5.55v7.26h-6v2.04h24.45v-2.04h-6.03zm26.182-18.87h-2.37v5.13c0 4.62-2.22 9.45-5.91 11.61l1.53 1.83c2.67-1.65 4.62-4.68 5.58-8.25.96 3.27 2.76 6.12 5.31 7.68l1.41-1.92c-3.54-2.16-5.55-6.72-5.55-11.04v-5.04zm7.08 7.11h-4.44v2.04h4.44v13.89h2.31v-24.99h-2.31v9.06zm5.46-9.66v26.91h2.34v-26.91h-2.34zm22.197 7.5h-3.99c.24-1.35.36-2.7.36-4.08h-10.32v2.01h7.89c-.42 5.64-3.3 10.47-9.09 13.92l1.44 1.74c5.1-3.03 8.01-7.08 9.27-11.61h4.44v4.74h-4.86v2.01h4.86v9.3h2.34v-24.81h-2.34v6.78zm5.4-7.5v26.88h2.34v-26.88h-2.34zM622.01 288.01c-1.68 4.56-4.47 9.03-7.41 11.91.42.51 1.02 1.65 1.26 2.19 1.02-1.11 2.07-2.34 3.03-3.72v16.83h2.13v-20.16c1.17-2.04 2.22-4.2 3.09-6.42l-2.1-.63zm5.46 12.66c-.81 3.54-2.22 7.11-4.11 9.39.54.3 1.5.87 1.92 1.23 1.83-2.49 3.42-6.27 4.38-10.2l-2.19-.42zm12.69-4.95c-.24 1.53-.51 3.12-.69 4.2l1.86.36c.39-1.59.93-4.17 1.32-6.36l-1.53-.36-.36.09h-12.15c.6-1.65 1.14-3.39 1.59-5.13l-2.19-.48c-.99 4.38-2.73 8.67-4.92 11.43.48.33 1.41 1.08 1.77 1.41 1.08-1.41 2.07-3.18 2.91-5.16h4.56v16.86c0 .39-.12.51-.51.51s-1.68.03-3.09-.03c.3.63.66 1.62.78 2.25 1.89 0 3.15-.06 3.96-.45.78-.36 1.05-1.02 1.05-2.28v-16.86h5.64zm-3.45 5.37c1.59 3.15 3.09 7.35 3.57 10.08l2.13-.72c-.51-2.73-2.04-6.84-3.75-10.02l-1.95.66zm17.61-4.98c-.39 3.93-1.17 7.23-2.31 9.93-1.14-.81-2.34-1.56-3.48-2.22.6-2.37 1.23-5.04 1.83-7.71h3.96zm.93-2.13l-.39.09h-4.05c.45-2.07.87-4.08 1.23-5.91l-2.13-.24c-.33 1.86-.75 3.99-1.23 6.15h-3.27v2.04h2.85c-.84 3.75-1.74 7.44-2.46 10.02l1.86.96.33-1.26c1.05.66 2.1 1.38 3.09 2.13-1.41 2.58-3.24 4.44-5.43 5.58.48.45 1.08 1.26 1.38 1.8 2.34-1.41 4.26-3.36 5.76-6.03 1.26 1.05 2.34 2.1 3.06 3l1.35-1.77c-.81-.99-2.01-2.1-3.42-3.18 1.47-3.36 2.4-7.65 2.79-13.08l-1.32-.3zm17.55 5.94h-7.14v-2.67c2.28-1.77 4.83-4.47 6.51-6.87l-1.47-1.08-.45.15h-12.84v2.04h11.22c-1.2 1.53-2.79 3.24-4.29 4.44h-.9v3.99h-7.02v2.07h7.02v10.47c0 .45-.15.6-.66.63-.51.03-2.19.03-4.08-.03.33.57.72 1.56.84 2.16 2.37 0 3.93-.06 4.86-.39.96-.36 1.26-1.02 1.26-2.37v-10.47h7.14v-2.07zm17.25 3.84v-6.27h5.64v6.27h-5.64zm7.86 3.42v-9.69h4.65v-2.13h-4.65v-6.93h-2.22v6.93h-5.64v-7.29h-2.19v7.29h-5.58v-6.66H680v6.66h-4.47v2.13H680v17.79h2.28v-2.19h19.26v-2.16h-19.26v-13.44h5.58v9.84h2.19v-1.47h5.64v1.32h2.22zm15.48-.57c0 2.25-.54 5.16-5.76 7.08.48.45 1.2 1.23 1.53 1.8 5.79-2.34 6.48-5.94 6.48-8.79v-1.83h-2.25v1.74zm-2.4-10.89h6.87v3.24h-6.87v-3.24zm0-4.95h6.87v3.18h-6.87v-3.18zm15.99 3.18h-6.93v-3.18h6.93v3.18zm0 5.01h-6.93v-3.24h6.93v3.24zm2.28 1.89v-11.97H708.8v11.97h5.97c-2.28 2.34-5.88 4.35-9.33 5.34.51.45 1.14 1.26 1.5 1.83 3.93-1.38 8.07-4.02 10.53-7.17h3.3c1.14 1.5 2.67 2.85 4.32 4.02h-2.22v10.38h2.28V304.9c1.89 1.29 3.99 2.34 6.12 3 .3-.57.96-1.44 1.47-1.89-3.57-.93-7.11-2.85-9.36-5.16h5.88zM463.717 523h1.845v-4.425h5.01V523h1.845v-10.5h-1.845v4.365h-5.01V512.5h-1.845V523zm14.817.18c1.455 0 2.49-.585 3.24-1.485l-1.065-.945c-.63.615-1.26.945-2.145.945-1.17 0-2.085-.72-2.28-2.01h5.82c.015-.18.03-.345.03-.51 0-2.28-1.275-4.26-3.795-4.26-2.265 0-3.87 1.86-3.87 4.125v.03c0 2.445 1.77 4.11 4.065 4.11zm-2.265-4.695c.165-1.23.945-2.085 2.055-2.085 1.2 0 1.89.915 2.01 2.085h-4.065zm7.717-4.62h1.95v-1.725h-1.95v1.725zm.075 9.135h1.815v-7.92h-1.815V523zm8.684 0h1.815v-4.47c0-1.215.69-1.965 1.695-1.965 1.005 0 1.605.69 1.605 1.92V523h1.815v-4.47c0-1.275.705-1.965 1.695-1.965 1.02 0 1.605.675 1.605 1.935v4.5h1.815v-5.055c0-1.935-1.05-3.03-2.775-3.03-1.2 0-2.04.555-2.67 1.395-.42-.84-1.23-1.395-2.37-1.395-1.215 0-1.905.66-2.415 1.365v-1.2h-1.815V523zm16.533.165c1.215 0 2.04-.51 2.58-1.155v.99h1.77v-4.695c0-1.035-.27-1.875-.855-2.445-.555-.57-1.44-.885-2.625-.885-1.26 0-2.115.255-2.985.645l.48 1.425c.72-.3 1.38-.495 2.265-.495 1.275 0 1.965.6 1.965 1.725v.195a6.616 6.616 0 00-2.13-.33c-1.935 0-3.27.84-3.27 2.55v.03c0 1.59 1.32 2.445 2.805 2.445zm.51-1.32c-.87 0-1.545-.435-1.545-1.2v-.03c0-.825.69-1.32 1.86-1.32.72 0 1.335.135 1.8.315v.54c0 1.005-.915 1.695-2.115 1.695zm8.294 1.32c1.215 0 2.04-.51 2.58-1.155v.99h1.77v-4.695c0-1.035-.27-1.875-.855-2.445-.555-.57-1.44-.885-2.625-.885-1.26 0-2.115.255-2.985.645l.48 1.425c.72-.3 1.38-.495 2.265-.495 1.275 0 1.965.6 1.965 1.725v.195a6.616 6.616 0 00-2.13-.33c-1.935 0-3.27.84-3.27 2.55v.03c0 1.59 1.32 2.445 2.805 2.445zm.51-1.32c-.87 0-1.545-.435-1.545-1.2v-.03c0-.825.69-1.32 1.86-1.32.72 0 1.335.135 1.8.315v.54c0 1.005-.915 1.695-2.115 1.695zm6.044-7.98h1.95v-1.725h-1.95v1.725zm.075 9.135h1.815v-7.92h-1.815V523zm4.292 0h1.815v-10.95h-1.815V523zm4.187 0h1.815v-4.47c0-1.215.69-1.965 1.695-1.965 1.005 0 1.605.69 1.605 1.92V523h1.815v-4.47c0-1.275.705-1.965 1.695-1.965 1.02 0 1.605.675 1.605 1.935v4.5h1.815v-5.055c0-1.935-1.05-3.03-2.775-3.03-1.2 0-2.04.555-2.67 1.395-.42-.84-1.23-1.395-2.37-1.395-1.215 0-1.905.66-2.415 1.365v-1.2h-1.815V523zm16.533.165c1.215 0 2.04-.51 2.58-1.155v.99h1.77v-4.695c0-1.035-.27-1.875-.855-2.445-.555-.57-1.44-.885-2.625-.885-1.26 0-2.115.255-2.985.645l.48 1.425c.72-.3 1.38-.495 2.265-.495 1.275 0 1.965.6 1.965 1.725v.195a6.616 6.616 0 00-2.13-.33c-1.935 0-3.27.84-3.27 2.55v.03c0 1.59 1.32 2.445 2.805 2.445zm.51-1.32c-.87 0-1.545-.435-1.545-1.2v-.03c0-.825.69-1.32 1.86-1.32.72 0 1.335.135 1.8.315v.54c0 1.005-.915 1.695-2.115 1.695zm6.643-2.175h1.005l.555-6.645v-.525h-2.13v.525l.57 6.645zm-.495 3.33h1.995v-2.07h-1.995V523zM598.036 484h2.46v-5.9h6.68v5.9h2.46v-14h-2.46v5.82h-6.68V470h-2.46v14zm19.936.24c3.26 0 5.66-2.5 5.66-5.5v-.04c0-3.02-2.38-5.48-5.62-5.48s-5.64 2.5-5.64 5.52v.04c0 3 2.38 5.46 5.6 5.46zm.04-2.12c-1.88 0-3.22-1.54-3.22-3.38v-.04c0-1.84 1.24-3.36 3.18-3.36 1.9 0 3.24 1.54 3.24 3.4v.04c0 1.82-1.24 3.34-3.2 3.34zm8.224 1.88h2.42v-14.6h-2.42V484zm8.623.22c1.62 0 2.72-.68 3.44-1.54V484h2.36v-6.26c0-1.38-.36-2.5-1.14-3.26-.74-.76-1.92-1.18-3.5-1.18-1.68 0-2.82.34-3.98.86l.64 1.9c.96-.4 1.84-.66 3.02-.66 1.7 0 2.62.8 2.62 2.3v.26c-.82-.26-1.66-.44-2.84-.44-2.58 0-4.36 1.12-4.36 3.4v.04c0 2.12 1.76 3.26 3.74 3.26zm.68-1.76c-1.16 0-2.06-.58-2.06-1.6v-.04c0-1.1.92-1.76 2.48-1.76.96 0 1.78.18 2.4.42v.72c0 1.34-1.22 2.26-2.82 2.26zm14.294 1.54h2.42v-10l4.38 6.56h.08l4.42-6.6V484h2.46v-14h-2.62l-4.26 6.62-4.26-6.62h-2.62v14zm20.723.22c1.64 0 2.62-.86 3.3-1.86V484h2.44v-10.56h-2.44v5.96c0 1.64-.98 2.6-2.38 2.6-1.44 0-2.26-.92-2.26-2.56v-6h-2.42v6.72c0 2.46 1.38 4.06 3.76 4.06zm8.763-.22h2.42v-5.96c0-1.64.98-2.62 2.38-2.62 1.44 0 2.26.94 2.26 2.58v6h2.42v-6.74c0-2.44-1.38-4.04-3.76-4.04-1.64 0-2.62.86-3.3 1.84v-1.62h-2.42V484zm16.762.22c1.72 0 2.82-.88 3.6-1.98V484h2.42v-14.6h-2.42v5.68c-.76-1-1.86-1.86-3.6-1.86-2.52 0-4.9 1.98-4.9 5.48v.04c0 3.5 2.42 5.48 4.9 5.48zm.58-2.1c-1.64 0-3.04-1.34-3.04-3.38v-.04c0-2.1 1.38-3.38 3.04-3.38 1.62 0 3.06 1.34 3.06 3.38v.04c0 2.02-1.44 3.38-3.06 3.38zm13.498 2.12c3.26 0 5.66-2.5 5.66-5.5v-.04c0-3.02-2.38-5.48-5.62-5.48s-5.64 2.5-5.64 5.52v.04c0 3 2.38 5.46 5.6 5.46zm.04-2.12c-1.88 0-3.22-1.54-3.22-3.38v-.04c0-1.84 1.24-3.36 3.18-3.36 1.9 0 3.24 1.54 3.24 3.4v.04c0 1.82-1.24 3.34-3.2 3.34zM565.7 354.96v1.64c1.58.12 3.28.22 5.28.22 1.86 0 4.04-.14 5.4-.24v-1.64c-1.44.14-3.48.28-5.4.28-2 0-3.84-.08-5.28-.26zm.8 8.06l-1.62-.16c-.18.82-.42 1.76-.42 2.78 0 2.52 2.36 3.86 6.42 3.86 2.84 0 5.38-.3 6.82-.7l-.02-1.72c-1.5.5-4.08.8-6.84.8-3.2 0-4.76-1.06-4.76-2.58 0-.74.16-1.48.42-2.28zm25.44-8.86l-1.76-.72c-.24.58-.5 1.08-.74 1.54-1.08 1.94-5.46 10.14-6.92 14.18l1.72.6c.26-1 1.12-3.36 1.72-4.56.78-1.56 2.28-3.2 3.9-3.2.9 0 1.4.52 1.46 1.4.06 1.1.02 2.64.08 3.8.08 1.18.76 2.54 2.9 2.54 2.9 0 4.58-2.24 5.64-5.46l-1.32-1.08c-.52 2.12-1.84 4.88-4.06 4.88-.88 0-1.56-.42-1.62-1.42-.06-.98-.04-2.52-.08-3.7-.06-1.58-1.02-2.42-2.34-2.42-.96 0-2.02.36-2.98 1.24 1.04-1.94 2.88-5.26 3.76-6.64.24-.38.46-.74.64-.98zm18.18 1.34v1.6c2.2.24 6.08.24 8.22 0v-1.62c-2 .3-6.04.38-8.22.02zm.78 8.14l-1.44-.14c-.22.98-.34 1.68-.34 2.36 0 1.88 1.5 3 4.86 3 2.06 0 3.74-.18 5-.42l-.04-1.68c-1.62.36-3.16.52-4.96.52-2.72 0-3.38-.88-3.38-1.8 0-.54.1-1.1.3-1.84zm-4.6-9.68l-1.78-.16c0 .44-.06.96-.14 1.42-.24 1.66-.9 5.08-.9 8.02 0 2.7.34 5 .74 6.42l1.44-.1c-.02-.2-.04-.48-.06-.7-.02-.22.04-.6.1-.9.18-.94.9-3.06 1.42-4.48l-.84-.64c-.34.82-.82 2.02-1.16 2.92-.12-.98-.18-1.82-.18-2.8 0-2.24.62-5.82 1-7.66.08-.36.26-1 .36-1.34zm23.16-.62l-1.78-.1c.02.56 0 1.02-.08 1.66a18 18 0 01-.22 1.32h-.34c-1.2 0-2.74-.16-3.8-.34l.02 1.56a37 37 0 003.8.2h.02c-.5 2.26-1.3 5.12-2.32 7.12l1.5.54c.18-.36.36-.62.62-.92 1.32-1.6 3.52-2.42 5.9-2.42 2.34 0 3.58 1.16 3.58 2.66 0 3.28-4.5 4.08-9.12 3.44l.4 1.58c6.08.66 10.36-.9 10.36-5.06 0-2.34-1.86-3.96-5.04-3.96-2.1 0-3.9.48-5.64 1.7.44-1.14.9-3.04 1.26-4.72 2.6-.1 5.78-.44 8.12-.84l-.02-1.54c-2.46.54-5.4.86-7.8.96.1-.46.16-.84.22-1.16.1-.52.22-1.14.36-1.68zm20.46 13.26c0-.98 1.06-1.62 2.56-1.62.72 0 1.4.12 2.04.32.02.26.02.5.02.7 0 1.32-.5 2.18-2.18 2.18-1.44 0-2.44-.56-2.44-1.58zm6.06-13h-1.8c.04.34.08.88.08 1.22v2.48c-.62.02-1.26.04-1.88.04-1.2 0-2.26-.06-3.4-.16v1.5c1.18.08 2.22.14 3.36.14.64 0 1.28-.02 1.92-.04.02 1.64.14 3.6.2 5.14-.58-.12-1.2-.18-1.86-.18-2.62 0-4.12 1.34-4.12 3.02 0 1.8 1.48 2.86 4.16 2.86 2.7 0 3.46-1.58 3.46-3.22v-.42c1.02.58 2.02 1.38 3.02 2.32l.88-1.34c-1.04-.94-2.34-1.94-3.96-2.58-.08-1.68-.22-3.68-.24-5.7 1.2-.08 2.36-.2 3.46-.38v-1.54c-1.06.2-2.24.36-3.46.46.02-.94.04-1.88.06-2.42.02-.4.06-.8.12-1.2zm-9.88.12l-1.76-.14c0 .42-.06.96-.12 1.42-.26 1.66-.92 5.48-.92 8.42 0 2.7.36 4.9.76 6.32l1.4-.1c-.02-.22-.04-.5-.04-.7-.02-.24.02-.62.08-.9.2-.98.94-3.02 1.42-4.42l-.82-.64c-.34.82-.82 2.04-1.14 2.94-.14-.98-.2-1.82-.2-2.78 0-2.24.6-6.2 1-8.06.06-.36.22-1.02.34-1.36zm25.6 9.12v-4.18h3.76v4.18h-3.76zm5.24 2.28v-6.46h3.1v-1.42h-3.1v-4.62h-1.48v4.62h-3.76v-4.86h-1.46v4.86h-3.72v-4.44H665v4.44h-2.98v1.42H665v11.86h1.52v-1.46h12.84v-1.44h-12.84v-8.96h3.72v6.56h1.46v-.98h3.76v.88h1.48zm10.32-.38c0 1.5-.36 3.44-3.84 4.72.32.3.8.82 1.02 1.2 3.86-1.56 4.32-3.96 4.32-5.86v-1.22h-1.5v1.16zm-1.6-7.26h4.58v2.16h-4.58v-2.16zm0-3.3h4.58v2.12h-4.58v-2.12zm10.66 2.12h-4.62v-2.12h4.62v2.12zm0 3.34h-4.62v-2.16h4.62v2.16zm1.52 1.26v-7.98H684.2v7.98h3.98c-1.52 1.56-3.92 2.9-6.22 3.56.34.3.76.84 1 1.22 2.62-.92 5.38-2.68 7.02-4.78h2.2c.76 1 1.78 1.9 2.88 2.68h-1.48v6.92h1.52v-6.9c1.26.86 2.66 1.56 4.08 2 .2-.38.64-.96.98-1.26-2.38-.62-4.74-1.9-6.24-3.44h3.92zM353.761 462h3.69v-8.85h10.02V462h3.69v-21h-3.69v8.73h-10.02V441h-3.69v21zm26.933.33c2.43 0 4.08-1.02 5.16-2.31V462h3.54v-9.39c0-2.07-.54-3.75-1.71-4.89-1.11-1.14-2.88-1.77-5.25-1.77-2.52 0-4.23.51-5.97 1.29l.96 2.85c1.44-.6 2.76-.99 4.53-.99 2.55 0 3.93 1.2 3.93 3.45v.39c-1.23-.39-2.49-.66-4.26-.66-3.87 0-6.54 1.68-6.54 5.1v.06c0 3.18 2.64 4.89 5.61 4.89zm1.02-2.64c-1.74 0-3.09-.87-3.09-2.4v-.06c0-1.65 1.38-2.64 3.72-2.64 1.44 0 2.67.27 3.6.63v1.08c0 2.01-1.83 3.39-4.23 3.39zm12.237 2.31h3.63v-21.9h-3.63V462zm8.584 0h3.63v-21.9h-3.63V462zm15.904.36c4.89 0 8.49-3.75 8.49-8.25v-.06c0-4.53-3.57-8.22-8.43-8.22-4.86 0-8.46 3.75-8.46 8.28v.06c0 4.5 3.57 8.19 8.4 8.19zm.06-3.18c-2.82 0-4.83-2.31-4.83-5.07v-.06c0-2.76 1.86-5.04 4.77-5.04 2.85 0 4.86 2.31 4.86 5.1v.06c0 2.73-1.86 5.01-4.8 5.01zm27.241 2.97h3.18l5.16-15.09 5.16 15.09h3.21l7.29-21.15h-3.87l-5.01 15.57-5.16-15.63h-3.12l-5.16 15.63-5.01-15.57h-3.99l7.32 21.15zm32.663.21c2.91 0 4.98-1.17 6.48-2.97l-2.13-1.89c-1.26 1.23-2.52 1.89-4.29 1.89-2.34 0-4.17-1.44-4.56-4.02h11.64c.03-.36.06-.69.06-1.02 0-4.56-2.55-8.52-7.59-8.52-4.53 0-7.74 3.72-7.74 8.25v.06c0 4.89 3.54 8.22 8.13 8.22zm-4.53-9.39c.33-2.46 1.89-4.17 4.11-4.17 2.4 0 3.78 1.83 4.02 4.17h-8.13zm15.586 9.03h3.63v-21.9h-3.63V462zm13.684.27c1.38 0 2.37-.3 3.27-.81v-2.97c-.72.36-1.44.54-2.25.54-1.23 0-1.95-.57-1.95-1.98v-7.77h4.26v-3.12h-4.26v-4.35h-3.63v4.35h-2.01v3.12h2.01v8.34c0 3.48 1.89 4.65 4.56 4.65zm8.284-6.93h2.01l1.11-13.29V441h-4.26v1.05l1.14 13.29zm-.99 6.66h3.99v-4.14h-3.99V462zM393.451 395h4.86c2.34 0 3.885-1.005 3.885-2.88v-.03c0-1.425-.855-2.13-2.085-2.55.78-.405 1.5-1.08 1.5-2.34v-.03c0-.705-.24-1.275-.705-1.74-.6-.6-1.545-.93-2.745-.93h-4.71V395zm6.315-7.5c0 .96-.795 1.425-1.98 1.425h-2.52v-2.79h2.655c1.185 0 1.845.51 1.845 1.335v.03zm.585 4.395v.03c0 .945-.765 1.44-2.025 1.44h-3.06v-2.88h2.925c1.455 0 2.16.525 2.16 1.41zm7.48 3.285c2.445 0 4.245-1.875 4.245-4.125v-.03c0-2.265-1.785-4.11-4.215-4.11-2.43 0-4.23 1.875-4.23 4.14v.03c0 2.25 1.785 4.095 4.2 4.095zm.03-1.59c-1.41 0-2.415-1.155-2.415-2.535v-.03c0-1.38.93-2.52 2.385-2.52 1.425 0 2.43 1.155 2.43 2.55v.03c0 1.365-.93 2.505-2.4 2.505zm6.064 1.41h1.815v-4.47c0-1.23.735-1.965 1.785-1.965 1.08 0 1.695.705 1.695 1.935v4.5h1.815v-5.055c0-1.83-1.035-3.03-2.82-3.03-1.23 0-1.965.645-2.475 1.38v-1.215h-1.815V395zm9.331-9.135h1.95v-1.725h-1.95v1.725zm-.405 11.58c1.47 0 2.295-.735 2.295-2.34v-8.025h-1.815V395c0 .69-.345.96-.855.96-.165 0-.33-.015-.51-.045v1.455c.285.045.525.075.885.075zm8.432-2.265c2.445 0 4.245-1.875 4.245-4.125v-.03c0-2.265-1.785-4.11-4.215-4.11-2.43 0-4.23 1.875-4.23 4.14v.03c0 2.25 1.785 4.095 4.2 4.095zm.03-1.59c-1.41 0-2.415-1.155-2.415-2.535v-.03c0-1.38.93-2.52 2.385-2.52 1.425 0 2.43 1.155 2.43 2.55v.03c0 1.365-.93 2.505-2.4 2.505zm8.794 1.575c1.23 0 1.965-.645 2.475-1.395V395h1.83v-7.92h-1.83v4.47c0 1.23-.735 1.95-1.785 1.95-1.08 0-1.695-.69-1.695-1.92v-4.5h-1.815v5.04c0 1.845 1.035 3.045 2.82 3.045zm6.572-.165h1.815v-3.015c0-2.1 1.11-3.135 2.7-3.135h.105v-1.92c-1.395-.06-2.31.75-2.805 1.935v-1.785h-1.815V395zm10.798 0h1.815v-10.95h-1.815V395zm7.817.18c1.455 0 2.49-.585 3.24-1.485l-1.065-.945c-.63.615-1.26.945-2.145.945-1.17 0-2.085-.72-2.28-2.01h5.82c.015-.18.03-.345.03-.51 0-2.28-1.275-4.26-3.795-4.26-2.265 0-3.87 1.86-3.87 4.125v.03c0 2.445 1.77 4.11 4.065 4.11zm-2.265-4.695c.165-1.23.945-2.085 2.055-2.085 1.2 0 1.89.915 2.01 2.085h-4.065zM475.424 395h1.815v-7.5l3.285 4.92h.06l3.315-4.95V395h1.845v-10.5h-1.965l-3.195 4.965-3.195-4.965h-1.965V395zm16.577.18c2.445 0 4.245-1.875 4.245-4.125v-.03c0-2.265-1.785-4.11-4.215-4.11-2.43 0-4.23 1.875-4.23 4.14v.03c0 2.25 1.785 4.095 4.2 4.095zm.03-1.59c-1.41 0-2.415-1.155-2.415-2.535v-.03c0-1.38.93-2.52 2.385-2.52 1.425 0 2.43 1.155 2.43 2.55v.03c0 1.365-.93 2.505-2.4 2.505zm6.064 1.41h1.815v-4.47c0-1.23.735-1.965 1.785-1.965 1.08 0 1.695.705 1.695 1.935v4.5h1.815v-5.055c0-1.83-1.035-3.03-2.82-3.03-1.23 0-1.965.645-2.475 1.38v-1.215h-1.815V395zm12.571.165c1.29 0 2.115-.66 2.7-1.485V395h1.815v-10.95h-1.815v4.26c-.57-.75-1.395-1.395-2.7-1.395-1.89 0-3.675 1.485-3.675 4.11v.03c0 2.625 1.815 4.11 3.675 4.11zm.435-1.575c-1.23 0-2.28-1.005-2.28-2.535v-.03c0-1.575 1.035-2.535 2.28-2.535 1.215 0 2.295 1.005 2.295 2.535v.03c0 1.515-1.08 2.535-2.295 2.535zm9.989 1.59c1.455 0 2.49-.585 3.24-1.485l-1.065-.945c-.63.615-1.26.945-2.145.945-1.17 0-2.085-.72-2.28-2.01h5.82c.015-.18.03-.345.03-.51 0-2.28-1.275-4.26-3.795-4.26-2.265 0-3.87 1.86-3.87 4.125v.03c0 2.445 1.77 4.11 4.065 4.11zm-2.265-4.695c.165-1.23.945-2.085 2.055-2.085 1.2 0 1.89.915 2.01 2.085h-4.065zm8.318 1.185h1.005l.555-6.645v-.525h-2.13v.525l.57 6.645zm-.495 3.33h1.995v-2.07h-1.995V395zM614.647 216.18c1.965 0 3.165-.72 4.26-1.86l-1.185-1.2c-.9.84-1.725 1.35-3.015 1.35-2.01 0-3.465-1.665-3.465-3.72v-.03c0-2.055 1.47-3.705 3.465-3.705 1.2 0 2.1.525 2.94 1.305l1.185-1.365c-1.005-.96-2.175-1.635-4.11-1.635-3.18 0-5.415 2.445-5.415 5.43v.03c0 3.015 2.28 5.4 5.34 5.4zm6.019-9.315h1.95v-1.725h-1.95v1.725zm.075 9.135h1.815v-7.92h-1.815V216zm6.467.165c1.215 0 2.04-.51 2.58-1.155v.99h1.77v-4.695c0-1.035-.27-1.875-.855-2.445-.555-.57-1.44-.885-2.625-.885-1.26 0-2.115.255-2.985.645l.48 1.425c.72-.3 1.38-.495 2.265-.495 1.275 0 1.965.6 1.965 1.725v.195a6.616 6.616 0 00-2.13-.33c-1.935 0-3.27.84-3.27 2.55v.03c0 1.59 1.32 2.445 2.805 2.445zm.51-1.32c-.87 0-1.545-.435-1.545-1.2v-.03c0-.825.69-1.32 1.86-1.32.72 0 1.335.135 1.8.315v.54c0 1.005-.915 1.695-2.115 1.695zm9.779 1.335c2.445 0 4.245-1.875 4.245-4.125v-.03c0-2.265-1.785-4.11-4.215-4.11-2.43 0-4.23 1.875-4.23 4.14v.03c0 2.25 1.785 4.095 4.2 4.095zm.03-1.59c-1.41 0-2.415-1.155-2.415-2.535v-.03c0-1.38.93-2.52 2.385-2.52 1.425 0 2.43 1.155 2.43 2.55v.03c0 1.365-.93 2.505-2.4 2.505zm10.77 1.41h1.815v-7.5l3.285 4.92h.06l3.315-4.95V216h1.845v-10.5h-1.965l-3.195 4.965-3.195-4.965h-1.965V216zm16.578.18c2.445 0 4.245-1.875 4.245-4.125v-.03c0-2.265-1.785-4.11-4.215-4.11-2.43 0-4.23 1.875-4.23 4.14v.03c0 2.25 1.785 4.095 4.2 4.095zm.03-1.59c-1.41 0-2.415-1.155-2.415-2.535v-.03c0-1.38.93-2.52 2.385-2.52 1.425 0 2.43 1.155 2.43 2.55v.03c0 1.365-.93 2.505-2.4 2.505zm6.063 1.41h1.815v-4.47c0-1.23.735-1.965 1.785-1.965 1.08 0 1.695.705 1.695 1.935v4.5h1.815v-5.055c0-1.83-1.035-3.03-2.82-3.03-1.23 0-1.965.645-2.475 1.38v-1.215h-1.815V216zm12.572.165c1.29 0 2.115-.66 2.7-1.485V216h1.815v-10.95h-1.815v4.26c-.57-.75-1.395-1.395-2.7-1.395-1.89 0-3.675 1.485-3.675 4.11v.03c0 2.625 1.815 4.11 3.675 4.11zm.435-1.575c-1.23 0-2.28-1.005-2.28-2.535v-.03c0-1.575 1.035-2.535 2.28-2.535 1.215 0 2.295 1.005 2.295 2.535v.03c0 1.515-1.08 2.535-2.295 2.535zm10.123 1.59c2.445 0 4.245-1.875 4.245-4.125v-.03c0-2.265-1.785-4.11-4.215-4.11-2.43 0-4.23 1.875-4.23 4.14v.03c0 2.25 1.785 4.095 4.2 4.095zm.03-1.59c-1.41 0-2.415-1.155-2.415-2.535v-.03c0-1.38.93-2.52 2.385-2.52 1.425 0 2.43 1.155 2.43 2.55v.03c0 1.365-.93 2.505-2.4 2.505zm6.694-1.92h1.005l.555-6.645v-.525h-2.13v.525l.57 6.645zm-.495 3.33h1.995v-2.07h-1.995V216zM554.84 108h1.89l1.08-2.535h4.965L563.84 108h1.95l-4.62-10.575h-1.71L554.84 108zm3.645-4.17l1.8-4.2 1.815 4.2h-3.615zm8.895 4.17h1.815v-4.47c0-1.23.735-1.965 1.785-1.965 1.08 0 1.695.705 1.695 1.935v4.5h1.815v-5.055c0-1.83-1.035-3.03-2.82-3.03-1.23 0-1.965.645-2.475 1.38V97.05h-1.815V108zm13.067.18c2.445 0 4.245-1.875 4.245-4.125v-.03c0-2.265-1.785-4.11-4.215-4.11-2.43 0-4.23 1.875-4.23 4.14v.03c0 2.25 1.785 4.095 4.2 4.095zm.03-1.59c-1.41 0-2.415-1.155-2.415-2.535v-.03c0-1.38.93-2.52 2.385-2.52 1.425 0 2.43 1.155 2.43 2.55v.03c0 1.365-.93 2.505-2.4 2.505zm6.093-7.725h1.95V97.14h-1.95v1.725zm-.405 11.58c1.47 0 2.295-.735 2.295-2.34v-8.025h-1.815V108c0 .69-.345.96-.855.96-.165 0-.33-.015-.51-.045v1.455c.285.045.525.075.885.075zm13.049-2.295c2.205 0 3.75-1.17 3.75-3.135v-.03c0-1.74-1.14-2.535-3.36-3.075-2.025-.48-2.505-.84-2.505-1.65v-.03c0-.69.63-1.245 1.71-1.245.96 0 1.905.375 2.85 1.08l.99-1.395c-1.065-.855-2.28-1.32-3.81-1.32-2.085 0-3.585 1.245-3.585 3.045v.03c0 1.935 1.26 2.595 3.495 3.135 1.95.45 2.37.855 2.37 1.605v.03c0 .78-.72 1.32-1.86 1.32-1.29 0-2.31-.495-3.315-1.365l-1.11 1.32a6.468 6.468 0 004.38 1.68zm7.995-.09h1.635l3.24-7.98h-1.905l-2.145 5.82-2.13-5.82h-1.95l3.255 7.98zm11.962-11.19h-1.41l-1.17 1.005-1.155-1.005h-1.44l1.74 2.205h1.68l1.755-2.205zm-2.37 11.31c1.455 0 2.49-.585 3.24-1.485l-1.065-.945c-.63.615-1.26.945-2.145.945-1.17 0-2.085-.72-2.28-2.01h5.82c.015-.18.03-.345.03-.51 0-2.28-1.275-4.26-3.795-4.26-2.265 0-3.87 1.86-3.87 4.125v.03c0 2.445 1.77 4.11 4.065 4.11zm-2.265-4.695c.165-1.23.945-2.085 2.055-2.085 1.2 0 1.89.915 2.01 2.085h-4.065zm10.343 4.65c.69 0 1.185-.15 1.635-.405v-1.485c-.36.18-.72.27-1.125.27-.615 0-.975-.285-.975-.99v-3.885h2.13v-1.56h-2.13v-2.175h-1.815v2.175h-1.005v1.56h1.005v4.17c0 1.74.945 2.325 2.28 2.325zm6.922.045c1.455 0 2.49-.585 3.24-1.485l-1.065-.945c-.63.615-1.26.945-2.145.945-1.17 0-2.085-.72-2.28-2.01h5.82c.015-.18.03-.345.03-.51 0-2.28-1.275-4.26-3.795-4.26-2.265 0-3.87 1.86-3.87 4.125v.03c0 2.445 1.77 4.11 4.065 4.11zm-2.265-4.695c.165-1.23.945-2.085 2.055-2.085 1.2 0 1.89.915 2.01 2.085h-4.065zm8.318 1.185h1.005l.555-6.645V97.5h-2.13v.525l.57 6.645zm-.495 3.33h1.995v-2.07h-1.995V108z"/><path fill="#4A586D" fill-rule="evenodd" d="M247.247 337.375l10.7-13.375-10.7-13.375a.999.999 0 01.781-1.625h6.959c.607 0 1.181.276 1.561.751l10.9 13.624c.292.365.292.885 0 1.25l-10.9 13.624c-.38.475-.954.751-1.561.751h-6.959a.999.999 0 01-.781-1.625z" clip-rule="evenodd"/></svg>